<svg xmlns="http://www.w3.org/2000/svg" viewBox="0 0 64 64">
    <defs>
        <linearGradient id="g" x1="0%" y1="0%" x2="100%" y2="100%">
            <stop offset="0%" stop-color="#3b82f6"/>
            <stop offset="100%" stop-color="#1d4ed8"/>
        </linearGradient>
    </defs>
    <circle cx="32" cy="32" r="32" fill="url(#g)"/>
    <g transform="translate(15,15) scale(1.45)" fill="none" stroke="#ffffff" stroke-width="2" stroke-linecap="round" stroke-linejoin="round">
        <path d="M3 21h18"/>
        <path d="M5 21V7a1 1 0 0 1 1-1h7a1 1 0 0 1 1 1v14"/>
        <path d="M14 21V11a1 1 0 0 1 1-1h4a1 1 0 0 1 1 1v10"/>
        <path d="M8 9h1M8 12h1M8 15h1M8 18h1M11 9h1M11 12h1M11 15h1M11 18h1M17 13h1M17 16h1" stroke-width="1.6"/>
    </g>
</svg>